<svg xmlns="http://www.w3.org/2000/svg" xmlns:xlink="http://www.w3.org/1999/xlink" version="1.1" width="512" height="512" viewBox="0 0 512 512" xml:space="preserve">
<desc>Created with Fabric.js 3.5.0</desc>
<defs>
</defs>
<rect x="0" y="0" width="100%" height="100%" fill="#ffffff"/>
<g transform="matrix(0.5414 0 0 0.5414 256.0034 256.0034)" id="624949">
<g style="" vector-effect="non-scaling-stroke">
		<g transform="matrix(1 0 0 1 36.5735 -10.0795)" id="Layer_1">
<path style="stroke: none; stroke-width: 1; stroke-dasharray: none; stroke-linecap: butt; stroke-dashoffset: 0; stroke-linejoin: miter; stroke-miterlimit: 4; is-custom-font: none; font-file-url: none; fill: rgb(128,155,206); fill-rule: nonzero; opacity: 1;" transform=" translate(-292.5735, -245.9205)" d="M 430.594 378.955 h -73.146 c -7.622 0 -13.801 -6.179 -13.801 -13.801 V 140.488 H 168.354 v 155.659 c 0 7.622 -6.179 13.801 -13.801 13.801 s -13.801 -6.179 -13.801 -13.801 v -169.46 c 0 -7.622 6.179 -13.801 13.801 -13.801 h 202.895 c 7.622 0 13.801 6.179 13.801 13.801 v 224.665 h 59.345 c 7.622 0 13.801 6.179 13.801 13.801 C 444.395 372.776 438.216 378.955 430.594 378.955 z" stroke-linecap="round"/>
</g>
		<g transform="matrix(1 0 0 1 208.397 -45.0755)" id="Layer_1">
<path style="stroke: none; stroke-width: 1; stroke-dasharray: none; stroke-linecap: butt; stroke-dashoffset: 0; stroke-linejoin: miter; stroke-miterlimit: 4; is-custom-font: none; font-file-url: none; fill: rgb(234,196,213); fill-rule: nonzero; opacity: 1;" transform=" translate(-464.397, -210.9245)" d="M 430.594 126.687 v 168.475 c 38.307 -6.027 67.606 -39.176 67.606 -79.175 v -89.3 H 430.594 z" stroke-linecap="round"/>
</g>
		<g transform="matrix(1 0 0 1 -0.0085 -44.5735)" id="Layer_1">
<rect style="stroke: none; stroke-width: 1; stroke-dasharray: none; stroke-linecap: butt; stroke-dashoffset: 0; stroke-linejoin: miter; stroke-miterlimit: 4; is-custom-font: none; font-file-url: none; fill: rgb(234,196,213); fill-rule: nonzero; opacity: 1;" x="-101.4455" y="-84.7325" rx="0" ry="0" width="202.891" height="169.465"/>
</g>
		<g transform="matrix(1 0 0 1 -208.396 -45.0755)" id="Layer_1">
<path style="stroke: none; stroke-width: 1; stroke-dasharray: none; stroke-linecap: butt; stroke-dashoffset: 0; stroke-linejoin: miter; stroke-miterlimit: 4; is-custom-font: none; font-file-url: none; fill: rgb(234,196,213); fill-rule: nonzero; opacity: 1;" transform=" translate(-47.604, -210.9245)" d="M 81.406 126.687 H 13.801 v 89.3 c 0 40 29.3 73.148 67.606 79.175 V 126.687 H 81.406 z" stroke-linecap="round"/>
</g>
		<g transform="matrix(1 0 0 1 0 0)" id="Layer_1">
<path style="stroke: none; stroke-width: 1; stroke-dasharray: none; stroke-linecap: butt; stroke-dashoffset: 0; stroke-linejoin: miter; stroke-miterlimit: 4; is-custom-font: none; font-file-url: none; fill: rgb(128,155,206); fill-rule: nonzero; opacity: 1;" transform=" translate(-256, -256)" d="M 498.199 112.886 h -53.804 v -5.827 c 0 -7.622 -6.179 -13.801 -13.801 -13.801 h -73.146 c -7.622 0 -13.801 6.179 -13.801 13.801 v 5.827 h -13.58 V 45.269 c 0 -7.622 -6.179 -13.801 -13.801 -13.801 h -120.53 c -7.622 0 -13.801 6.179 -13.801 13.801 v 67.617 h -13.58 v -5.827 c 0 -7.622 -6.179 -13.801 -13.801 -13.801 H 81.406 c -7.622 0 -13.801 6.179 -13.801 13.801 v 5.827 H 13.801 C 6.179 112.886 0 119.065 0 126.687 v 89.3 v 250.744 c 0 7.622 6.179 13.801 13.801 13.801 h 484.398 c 7.622 0 13.801 -6.179 13.801 -13.801 V 215.988 v -89.3 C 512 119.065 505.821 112.886 498.199 112.886 z M 484.398 140.488 v 75.499 c 0 27.192 -16.095 50.748 -40.003 60.968 V 140.488 H 484.398 z M 209.536 59.07 h 92.927 v 53.816 h -92.927 L 209.536 59.07 L 209.536 59.07 z M 343.646 140.488 v 141.858 H 168.354 V 140.488 H 343.646 z M 27.602 140.488 h 40.003 v 136.467 c -23.908 -10.22 -40.003 -33.777 -40.003 -60.968 V 140.488 z M 269.802 452.929 v -83.643 c 0 -7.622 -6.179 -13.801 -13.801 -13.801 s -13.801 6.179 -13.801 13.801 v 83.643 H 27.602 V 282.475 c 11.175 11.146 24.95 19.3 40.003 23.701 v 58.978 c 0 7.622 6.179 13.801 13.801 13.801 h 73.146 c 7.622 0 13.801 -6.179 13.801 -13.801 c 0 -7.622 -6.179 -13.801 -13.801 -13.801 H 95.207 v -56.19 V 126.687 v -5.827 h 45.544 v 5.827 v 169.46 l 0 0 c 0 7.622 6.179 13.801 13.801 13.801 c 0.004 0 0.008 0 0.014 0 h 189.08 v 55.205 c 0 7.622 6.179 13.801 13.801 13.801 h 73.146 c 7.622 0 13.801 -6.179 13.801 -13.801 c 0 -7.622 -6.179 -13.801 -13.801 -13.801 h -59.345 v -55.205 v -169.46 v -5.827 h 45.544 v 5.827 v 166.219 v 2.257 c 0 4.035 1.765 7.868 4.832 10.49 c 2.517 2.153 5.703 3.311 8.969 3.311 c 0.714 0 1.431 -0.055 2.145 -0.168 c 19.563 -3.078 37.655 -12.352 51.659 -26.32 v 170.454 H 269.802 z" stroke-linecap="round"/>
</g>
</g>
</g>
</svg>