<svg xmlns="http://www.w3.org/2000/svg" xmlns:xlink="http://www.w3.org/1999/xlink" version="1.1" width="512" height="512" viewBox="0 0 512 512" xml:space="preserve">
<desc>Created with Fabric.js 3.5.0</desc>
<defs>
</defs>
<rect x="0" y="0" width="100%" height="100%" fill="#ffffff"/>
<g transform="matrix(0.5376 0 0 0.5376 255.9961 255.9961)" id="694053">
<g style="" vector-effect="non-scaling-stroke">
		<g transform="matrix(1 0 0 1 -60.216 -92.833)" id="Layer_1">
<rect style="stroke: none; stroke-width: 1; stroke-dasharray: none; stroke-linecap: butt; stroke-dashoffset: 0; stroke-linejoin: miter; stroke-miterlimit: 4; is-custom-font: none; font-file-url: none; fill: rgb(234,196,213); fill-rule: nonzero; opacity: 1;" x="-35.3325" y="-35.3325" rx="0" ry="0" width="70.665" height="70.665"/>
</g>
		<g transform="matrix(1 0 0 1 -60.215 -92.83)" id="Layer_1">
<path style="stroke: none; stroke-width: 1; stroke-dasharray: none; stroke-linecap: butt; stroke-dashoffset: 0; stroke-linejoin: miter; stroke-miterlimit: 4; is-custom-font: none; font-file-url: none; fill: rgb(128,155,206); fill-rule: nonzero; opacity: 1;" transform=" translate(-195.7845, -163.1695)" d="M 231.117 212.358 h -70.665 c -7.653 0 -13.856 -6.203 -13.856 -13.856 v -70.665 c 0 -7.653 6.203 -13.856 13.856 -13.856 h 70.665 c 7.653 0 13.856 6.203 13.856 13.856 v 70.665 C 244.973 206.154 238.77 212.358 231.117 212.358 z M 174.308 184.646 h 42.953 v -42.953 h -42.953 L 174.308 184.646 L 174.308 184.646 z" stroke-linecap="round"/>
</g>
		<g transform="matrix(1 0 0 1 60.219 -92.833)" id="Layer_1">
<rect style="stroke: none; stroke-width: 1; stroke-dasharray: none; stroke-linecap: butt; stroke-dashoffset: 0; stroke-linejoin: miter; stroke-miterlimit: 4; is-custom-font: none; font-file-url: none; fill: rgb(234,196,213); fill-rule: nonzero; opacity: 1;" x="-35.3325" y="-35.3325" rx="0" ry="0" width="70.665" height="70.665"/>
</g>
		<g transform="matrix(1 0 0 1 60.216 -92.83)" id="Layer_1">
<path style="stroke: none; stroke-width: 1; stroke-dasharray: none; stroke-linecap: butt; stroke-dashoffset: 0; stroke-linejoin: miter; stroke-miterlimit: 4; is-custom-font: none; font-file-url: none; fill: rgb(128,155,206); fill-rule: nonzero; opacity: 1;" transform=" translate(-316.2155, -163.1695)" d="M 351.548 212.358 h -70.665 c -7.653 0 -13.856 -6.203 -13.856 -13.856 v -70.665 c 0 -7.653 6.203 -13.856 13.856 -13.856 h 70.665 c 7.653 0 13.856 6.203 13.856 13.856 v 70.665 C 365.404 206.154 359.2 212.358 351.548 212.358 z M 294.739 184.646 h 42.953 v -42.953 h -42.953 V 184.646 z" stroke-linecap="round"/>
</g>
		<g transform="matrix(1 0 0 1 -60.216 28.059)" id="Layer_1">
<rect style="stroke: none; stroke-width: 1; stroke-dasharray: none; stroke-linecap: butt; stroke-dashoffset: 0; stroke-linejoin: miter; stroke-miterlimit: 4; is-custom-font: none; font-file-url: none; fill: rgb(234,196,213); fill-rule: nonzero; opacity: 1;" x="-35.3325" y="-35.3325" rx="0" ry="0" width="70.665" height="70.665"/>
</g>
		<g transform="matrix(1 0 0 1 -60.215 28.062)" id="Layer_1">
<path style="stroke: none; stroke-width: 1; stroke-dasharray: none; stroke-linecap: butt; stroke-dashoffset: 0; stroke-linejoin: miter; stroke-miterlimit: 4; is-custom-font: none; font-file-url: none; fill: rgb(128,155,206); fill-rule: nonzero; opacity: 1;" transform=" translate(-195.7845, -284.0615)" d="M 231.117 333.25 h -70.665 c -7.653 0 -13.856 -6.203 -13.856 -13.856 v -70.665 c 0 -7.653 6.203 -13.856 13.856 -13.856 h 70.665 c 7.653 0 13.856 6.203 13.856 13.856 v 70.665 C 244.973 327.047 238.77 333.25 231.117 333.25 z M 174.308 305.538 h 42.953 v -42.953 h -42.953 L 174.308 305.538 L 174.308 305.538 z" stroke-linecap="round"/>
</g>
		<g transform="matrix(1 0 0 1 60.219 28.059)" id="Layer_1">
<rect style="stroke: none; stroke-width: 1; stroke-dasharray: none; stroke-linecap: butt; stroke-dashoffset: 0; stroke-linejoin: miter; stroke-miterlimit: 4; is-custom-font: none; font-file-url: none; fill: rgb(234,196,213); fill-rule: nonzero; opacity: 1;" x="-35.3325" y="-35.3325" rx="0" ry="0" width="70.665" height="70.665"/>
</g>
		<g transform="matrix(1 0 0 1 60.216 28.062)" id="Layer_1">
<path style="stroke: none; stroke-width: 1; stroke-dasharray: none; stroke-linecap: butt; stroke-dashoffset: 0; stroke-linejoin: miter; stroke-miterlimit: 4; is-custom-font: none; font-file-url: none; fill: rgb(128,155,206); fill-rule: nonzero; opacity: 1;" transform=" translate(-316.2155, -284.0615)" d="M 351.548 333.25 h -70.665 c -7.653 0 -13.856 -6.203 -13.856 -13.856 v -70.665 c 0 -7.653 6.203 -13.856 13.856 -13.856 h 70.665 c 7.653 0 13.856 6.203 13.856 13.856 v 70.665 C 365.404 327.047 359.2 333.25 351.548 333.25 z M 294.739 305.538 h 42.953 v -42.953 h -42.953 V 305.538 z" stroke-linecap="round"/>
</g>
		<g transform="matrix(1 0 0 1 0.0015 -214.081)" id="Layer_1">
<rect style="stroke: none; stroke-width: 1; stroke-dasharray: none; stroke-linecap: butt; stroke-dashoffset: 0; stroke-linejoin: miter; stroke-miterlimit: 4; is-custom-font: none; font-file-url: none; fill: rgb(234,196,213); fill-rule: nonzero; opacity: 1;" x="-83.135" y="-28.0625" rx="0" ry="0" width="166.27" height="56.125"/>
</g>
		<g transform="matrix(1 0 0 1 0.001 -0.0005)" id="Layer_1">
<path style="stroke: none; stroke-width: 1; stroke-dasharray: none; stroke-linecap: butt; stroke-dashoffset: 0; stroke-linejoin: miter; stroke-miterlimit: 4; is-custom-font: none; font-file-url: none; fill: rgb(128,155,206); fill-rule: nonzero; opacity: 1;" transform=" translate(-256.0005, -255.999)" d="M 501.497 371.455 l -40.165 -41.594 c -5.315 -5.506 -14.087 -5.659 -19.592 -0.342 c -5.505 5.315 -5.657 14.087 -0.342 19.592 l 36.276 37.567 v 97.61 h -62.329 V 69.98 c 0 -7.653 -6.203 -13.856 -13.856 -13.856 h -48.5 V 13.856 C 352.989 6.203 346.786 0 339.133 0 h -166.27 c -7.653 0 -13.856 6.203 -13.856 13.856 v 42.269 h -48.498 c -7.653 0 -13.856 6.203 -13.856 13.856 v 414.307 H 34.324 v -97.61 L 70.6 349.109 c 5.315 -5.505 5.163 -14.276 -0.342 -19.592 c -5.504 -5.315 -14.276 -5.161 -19.592 0.342 l -40.164 41.595 c -2.494 2.583 -3.889 6.033 -3.889 9.624 v 117.064 c 0 7.653 6.203 13.856 13.856 13.856 h 471.063 c 7.653 0 13.856 -6.203 13.856 -13.856 V 381.079 C 505.387 377.487 503.993 374.037 501.497 371.455 z M 186.72 27.712 h 138.558 v 28.413 H 186.72 V 27.712 z M 124.365 83.836 h 48.5 h 166.27 h 48.5 v 400.451 H 214.461 v -100.81 h 83.077 v 61.757 c 0 7.653 6.203 13.856 13.856 13.856 c 7.653 0 13.856 -6.203 13.856 -13.856 v -75.613 c 0 -7.653 -6.203 -13.856 -13.856 -13.856 H 200.605 c -7.653 0 -13.856 6.203 -13.856 13.856 v 114.665 h -62.385 V 83.836 z" stroke-linecap="round"/>
</g>
</g>
</g>
</svg>