<svg xmlns="http://www.w3.org/2000/svg" xmlns:xlink="http://www.w3.org/1999/xlink" version="1.1" width="1000" height="1000" viewBox="0 0 1000 1000" xml:space="preserve">
<desc>Created with Fabric.js 3.5.0</desc>
<defs>
</defs>
<rect x="0" y="0" width="100%" height="100%" fill="#ffffff"/>
<g transform="matrix(1.0645 0 0 1.0645 499.9949 499.9949)" id="959499">
<g style="" vector-effect="non-scaling-stroke">
		<g transform="matrix(0.7071 -0.7071 0.7071 0.7071 125.304 -124.7123)" id="Layer_1">
<rect style="stroke: none; stroke-width: 1; stroke-dasharray: none; stroke-linecap: butt; stroke-dashoffset: 0; stroke-linejoin: miter; stroke-miterlimit: 4; is-custom-font: none; font-file-url: none; fill: rgb(234,196,213); fill-rule: nonzero; opacity: 1;" x="-98.4835" y="-64.956" rx="0" ry="0" width="196.967" height="129.912"/>
</g>
		<g transform="matrix(-0.7071 0.7071 -0.7071 -0.7071 -109.1971 109.7882)" id="Layer_1">
<rect style="stroke: none; stroke-width: 1; stroke-dasharray: none; stroke-linecap: butt; stroke-dashoffset: 0; stroke-linejoin: miter; stroke-miterlimit: 4; is-custom-font: none; font-file-url: none; fill: rgb(234,196,213); fill-rule: nonzero; opacity: 1;" x="-121.2735" y="-64.956" rx="0" ry="0" width="242.547" height="129.912"/>
</g>
		<g transform="matrix(1 0 0 1 -177.214 -208.8495)" id="Layer_1">
<path style="stroke: none; stroke-width: 1; stroke-dasharray: none; stroke-linecap: butt; stroke-dashoffset: 0; stroke-linejoin: miter; stroke-miterlimit: 4; is-custom-font: none; font-file-url: none; fill: rgb(128,155,206); fill-rule: nonzero; opacity: 1;" transform=" translate(-78.7865, -47.1509)" d="M 46.166 94.302 c -3.72 0 -7.436 -1.418 -10.274 -4.256 c -5.674 -5.674 -5.674 -14.874 0 -20.548 l 65.241 -65.243 c 5.674 -5.673 14.874 -5.674 20.548 0 c 5.674 5.674 5.674 14.874 0 20.548 L 56.441 90.046 C 53.603 92.882 49.885 94.302 46.166 94.302 z" stroke-linecap="round"/>
</g>
		<g transform="matrix(-0.7071 -0.7071 0.7071 -0.7071 -115.0695 -146.7024)" id="Layer_1">
<rect style="stroke: none; stroke-width: 1; stroke-dasharray: none; stroke-linecap: butt; stroke-dashoffset: 0; stroke-linejoin: miter; stroke-miterlimit: 4; is-custom-font: none; font-file-url: none; fill: rgb(234,196,213); fill-rule: nonzero; opacity: 1;" x="-42.8705" y="-55.9355" rx="0" ry="0" width="85.741" height="111.871"/>
</g>
		<g transform="matrix(1 0 0 1 0 0.5927)" id="Layer_1">
<path style="stroke: none; stroke-width: 1; stroke-dasharray: none; stroke-linecap: butt; stroke-dashoffset: 0; stroke-linejoin: miter; stroke-miterlimit: 4; is-custom-font: none; font-file-url: none; fill: rgb(128,155,206); fill-rule: nonzero; opacity: 1;" transform=" translate(-256.0005, -256.5933)" d="M 443.204 181.803 c 0.003 -0.003 0.004 -0.004 0.007 -0.007 l 63.941 -63.941 c 5.674 -5.674 5.674 -14.874 0 -20.548 L 415.286 5.442 c -5.675 -5.674 -14.873 -5.674 -20.55 0 L 265.734 134.444 l -44.652 -44.652 l -60.631 -60.631 c -0.344 -0.344 -0.705 -0.668 -1.078 -0.974 c -0.262 -0.214 -0.533 -0.404 -0.805 -0.596 c -0.116 -0.081 -0.225 -0.174 -0.343 -0.251 c -0.336 -0.224 -0.68 -0.423 -1.029 -0.616 c -0.064 -0.035 -0.124 -0.077 -0.189 -0.112 c -0.353 -0.187 -0.713 -0.352 -1.077 -0.509 c -0.071 -0.031 -0.138 -0.068 -0.209 -0.097 c -0.34 -0.139 -0.686 -0.257 -1.033 -0.371 c -0.105 -0.033 -0.205 -0.077 -0.311 -0.109 c -0.308 -0.093 -0.622 -0.163 -0.934 -0.234 c -0.151 -0.035 -0.299 -0.08 -0.452 -0.11 c -0.266 -0.052 -0.535 -0.083 -0.802 -0.119 c -0.203 -0.029 -0.404 -0.068 -0.609 -0.089 c -0.214 -0.02 -0.429 -0.02 -0.644 -0.032 c -0.254 -0.013 -0.506 -0.038 -0.761 -0.038 c -0.275 0 -0.545 0.025 -0.818 0.041 c -0.195 0.012 -0.391 0.01 -0.586 0.029 c -0.23 0.022 -0.456 0.065 -0.684 0.099 c -0.241 0.035 -0.484 0.061 -0.724 0.108 c -0.183 0.036 -0.363 0.09 -0.545 0.134 c -0.28 0.067 -0.562 0.128 -0.838 0.211 c -0.138 0.042 -0.272 0.097 -0.408 0.142 c -0.314 0.105 -0.628 0.208 -0.936 0.334 c -0.106 0.044 -0.208 0.099 -0.314 0.145 c -0.327 0.144 -0.654 0.291 -0.972 0.459 c -0.11 0.058 -0.214 0.129 -0.323 0.19 c -0.302 0.171 -0.604 0.341 -0.895 0.536 c -0.182 0.121 -0.352 0.259 -0.529 0.388 c -0.208 0.153 -0.42 0.295 -0.62 0.459 c -0.376 0.307 -0.738 0.634 -1.084 0.979 l -79.101 79.107 c -2.043 2.044 -3.416 4.634 -3.974 7.426 c -0.186 0.931 -0.282 1.885 -0.282 2.848 c 0 3.853 1.531 7.55 4.256 10.274 l 60.631 60.631 c 0 0 0.001 0 0.001 0.001 l 44.651 44.651 L 4.849 395.33 c -5.674 5.674 -5.674 14.874 0 20.548 l 91.866 91.866 c 2.724 2.724 6.419 4.256 10.274 4.256 c 3.855 0 7.55 -1.531 10.274 -4.256 l 161.231 -161.232 l 110.091 110.091 c 2.658 2.656 6.239 4.18 9.997 4.253 l 80.649 1.545 c 0.094 0.001 0.189 0.003 0.283 0.003 c 7.896 0 14.37 -6.323 14.521 -14.253 c 0.153 -8.023 -6.226 -14.652 -14.25 -14.805 l -74.795 -1.433 L 152.252 179.172 l 58.556 -58.557 l 44.648 44.648 c 0.001 0.001 0.003 0.003 0.004 0.004 l 91.866 91.866 c 0.001 0.001 0.001 0.001 0.003 0.003 l 120.362 120.362 c 5.675 5.675 14.876 5.675 20.55 0 c 5.674 -5.674 5.674 -14.874 0 -20.55 L 378.15 246.857 l 65.048 -65.048 C 443.199 181.807 443.201 181.806 443.204 181.803 z M 106.988 476.922 l -71.316 -71.318 L 186.63 254.646 l 19.815 19.815 l 17.145 17.147 c -5.581 -3.34 -12.914 -2.623 -17.722 2.185 c -5.674 5.674 -5.674 14.874 0 20.548 l 31.85 31.848 l -66.783 66.784 l -31.85 -31.85 c -5.674 -5.674 -14.874 -5.674 -20.548 0 c -5.674 5.674 -5.675 14.874 0 20.548 l 31.85 31.851 L 106.988 476.922 z M 131.703 158.623 l -40.083 -40.082 l 58.557 -58.556 l 40.081 40.081 L 131.703 158.623 z M 286.284 154.992 L 405.011 36.265 l 71.316 71.318 l -43.398 43.398 l -31.85 -31.85 c -5.675 -5.674 -14.873 -5.674 -20.55 0 c -5.674 5.674 -5.674 14.874 0 20.55 l 31.85 31.85 l -54.78 54.781 L 286.284 154.992 z" stroke-linecap="round"/>
</g>
</g>
</g>
</svg>