<svg xmlns="http://www.w3.org/2000/svg" xmlns:xlink="http://www.w3.org/1999/xlink" version="1.1" width="1000" height="1000" viewBox="0 0 1000 1000" xml:space="preserve">
<desc>Created with Fabric.js 3.5.0</desc>
<defs>
</defs>
<rect x="0" y="0" width="100%" height="100%" fill="#ffffff"/>
<g transform="matrix(1.0163 0 0 1.0163 500.0053 500.0053)" id="715981">
<g style="" vector-effect="non-scaling-stroke">
		<g transform="matrix(1 0 0 1 -68.718 -37.757)" id="Layer_1">
<polygon style="stroke: none; stroke-width: 1; stroke-dasharray: none; stroke-linecap: butt; stroke-dashoffset: 0; stroke-linejoin: miter; stroke-miterlimit: 4; is-custom-font: none; font-file-url: none; fill: rgb(234,196,213); fill-rule: nonzero; opacity: 1;" points="0,-55.105 20.504,-22.405 57.94,-13.008 33.176,16.598 35.808,55.105 0,40.702 -35.81,55.105 -33.178,16.598 -57.94,-13.008 -20.504,-22.405 "/>
</g>
		<g transform="matrix(1 0 0 1 -68.719 -37.7555)" id="Layer_1">
<path style="stroke: none; stroke-width: 1; stroke-dasharray: none; stroke-linecap: butt; stroke-dashoffset: 0; stroke-linejoin: miter; stroke-miterlimit: 4; is-custom-font: none; font-file-url: none; fill: rgb(128,155,206); fill-rule: nonzero; opacity: 1;" transform=" translate(-187.281, -218.2445)" d="M 151.474 288.407 c -3.134 0 -6.24 -0.977 -8.853 -2.876 c -4.194 -3.048 -6.526 -8.038 -6.173 -13.21 l 2.22 -32.465 l -20.878 -24.958 c -3.325 -3.977 -4.372 -9.385 -2.771 -14.315 c 1.602 -4.93 5.627 -8.69 10.656 -9.952 l 31.562 -7.921 l 17.286 -27.57 c 2.754 -4.393 7.575 -7.06 12.759 -7.06 s 10.005 2.667 12.759 7.06 l 17.286 27.57 l 31.56 7.921 c 5.028 1.262 9.053 5.022 10.656 9.952 c 1.601 4.93 0.554 10.339 -2.771 14.315 l -20.878 24.96 l 2.22 32.465 c 0.354 5.173 -1.977 10.163 -6.173 13.21 c -4.195 3.046 -9.662 3.723 -14.47 1.789 l -30.19 -12.143 l -30.191 12.143 C 155.278 288.048 153.371 288.407 151.474 288.407 z M 156.3 213.993 l 9.356 11.184 c 2.492 2.982 3.736 6.811 3.473 10.689 l -0.994 14.548 l 13.529 -5.442 c 3.607 -1.45 7.632 -1.45 11.238 0 l 13.527 5.441 l -0.994 -14.547 c -0.265 -3.878 0.979 -7.707 3.473 -10.689 l 9.356 -11.184 l -14.143 -3.549 c -3.769 -0.946 -7.028 -3.313 -9.093 -6.606 l -7.746 -12.354 l -7.746 12.354 c -2.065 3.293 -5.323 5.659 -9.093 6.606 L 156.3 213.993 z" stroke-linecap="round"/>
</g>
		<g transform="matrix(1 0 0 1 83.7405 -64.077)" id="Layer_1">
<path style="stroke: none; stroke-width: 1; stroke-dasharray: none; stroke-linecap: butt; stroke-dashoffset: 0; stroke-linejoin: miter; stroke-miterlimit: 4; is-custom-font: none; font-file-url: none; fill: rgb(128,155,206); fill-rule: nonzero; opacity: 1;" transform=" translate(-339.7405, -191.923)" d="M 382.658 206.982 h -85.835 c -8.315 0 -15.059 -6.742 -15.059 -15.059 c 0 -8.317 6.743 -15.059 15.059 -15.059 h 85.835 c 8.315 0 15.059 6.742 15.059 15.059 S 390.975 206.982 382.658 206.982 z" stroke-linecap="round"/>
</g>
		<g transform="matrix(1 0 0 1 68.674 -11.437)" id="Layer_1">
<path style="stroke: none; stroke-width: 1; stroke-dasharray: none; stroke-linecap: butt; stroke-dashoffset: 0; stroke-linejoin: miter; stroke-miterlimit: 4; is-custom-font: none; font-file-url: none; fill: rgb(128,155,206); fill-rule: nonzero; opacity: 1;" transform=" translate(-324.674, -244.563)" d="M 352.523 259.622 h -55.698 c -8.315 0 -15.059 -6.742 -15.059 -15.059 c 0 -8.317 6.743 -15.059 15.059 -15.059 h 55.698 c 8.315 0 15.059 6.742 15.059 15.059 C 367.581 252.88 360.838 259.622 352.523 259.622 z" stroke-linecap="round"/>
</g>
		<g transform="matrix(1 0 0 1 -68.718 124.9915)" id="Layer_1">
<polygon style="stroke: none; stroke-width: 1; stroke-dasharray: none; stroke-linecap: butt; stroke-dashoffset: 0; stroke-linejoin: miter; stroke-miterlimit: 4; is-custom-font: none; font-file-url: none; fill: rgb(234,196,213); fill-rule: nonzero; opacity: 1;" points="0,-55.1045 20.504,-22.4045 57.94,-13.0095 33.176,16.5975 35.808,55.1045 0,40.7005 -35.81,55.1045 -33.178,16.5975 -57.94,-13.0095 -20.504,-22.4045 "/>
</g>
		<g transform="matrix(1 0 0 1 -68.719 124.9905)" id="Layer_1">
<path style="stroke: none; stroke-width: 1; stroke-dasharray: none; stroke-linecap: butt; stroke-dashoffset: 0; stroke-linejoin: miter; stroke-miterlimit: 4; is-custom-font: none; font-file-url: none; fill: rgb(128,155,206); fill-rule: nonzero; opacity: 1;" transform=" translate(-187.281, -380.9905)" d="M 223.09 451.155 c -1.897 0 -3.804 -0.358 -5.617 -1.087 l -30.19 -12.143 l -30.191 12.143 c -4.808 1.934 -10.276 1.257 -14.47 -1.789 c -4.194 -3.048 -6.527 -8.038 -6.173 -13.21 l 2.22 -32.465 l -20.879 -24.96 c -3.325 -3.977 -4.372 -9.385 -2.771 -14.315 c 1.602 -4.93 5.627 -8.69 10.656 -9.952 l 31.562 -7.921 l 17.286 -27.57 c 2.754 -4.393 7.575 -7.06 12.759 -7.06 s 10.005 2.667 12.759 7.06 l 17.286 27.57 l 31.56 7.921 c 5.028 1.262 9.053 5.022 10.656 9.952 c 1.601 4.93 0.554 10.338 -2.771 14.315 l -20.878 24.96 l 2.22 32.465 c 0.354 5.173 -1.977 10.163 -6.173 13.21 C 229.329 450.178 226.224 451.155 223.09 451.155 z M 156.3 376.742 l 9.356 11.184 c 2.492 2.982 3.736 6.811 3.473 10.689 l -0.994 14.548 l 13.529 -5.442 c 3.607 -1.45 7.632 -1.45 11.238 0 l 13.527 5.442 l -0.994 -14.548 c -0.265 -3.878 0.979 -7.707 3.473 -10.689 l 9.356 -11.184 l -14.143 -3.549 c -3.769 -0.946 -7.028 -3.313 -9.093 -6.606 l -7.746 -12.354 l -7.746 12.354 c -2.065 3.293 -5.323 5.659 -9.093 6.606 L 156.3 376.742 z" stroke-linecap="round"/>
</g>
		<g transform="matrix(1 0 0 1 83.7405 98.671)" id="Layer_1">
<path style="stroke: none; stroke-width: 1; stroke-dasharray: none; stroke-linecap: butt; stroke-dashoffset: 0; stroke-linejoin: miter; stroke-miterlimit: 4; is-custom-font: none; font-file-url: none; fill: rgb(128,155,206); fill-rule: nonzero; opacity: 1;" transform=" translate(-339.7405, -354.671)" d="M 382.658 369.73 h -85.835 c -8.315 0 -15.059 -6.742 -15.059 -15.059 s 6.743 -15.059 15.059 -15.059 h 85.835 c 8.315 0 15.059 6.742 15.059 15.059 S 390.975 369.73 382.658 369.73 z" stroke-linecap="round"/>
</g>
		<g transform="matrix(1 0 0 1 68.674 151.309)" id="Layer_1">
<path style="stroke: none; stroke-width: 1; stroke-dasharray: none; stroke-linecap: butt; stroke-dashoffset: 0; stroke-linejoin: miter; stroke-miterlimit: 4; is-custom-font: none; font-file-url: none; fill: rgb(128,155,206); fill-rule: nonzero; opacity: 1;" transform=" translate(-324.674, -407.309)" d="M 352.523 422.368 h -55.698 c -8.315 0 -15.059 -6.742 -15.059 -15.059 c 0 -8.317 6.743 -15.059 15.059 -15.059 h 55.698 c 8.315 0 15.059 6.742 15.059 15.059 C 367.581 415.627 360.838 422.368 352.523 422.368 z" stroke-linecap="round"/>
</g>
		<g transform="matrix(1 0 0 1 -135.534 -174.66)" id="Layer_1">
<rect style="stroke: none; stroke-width: 1; stroke-dasharray: none; stroke-linecap: butt; stroke-dashoffset: 0; stroke-linejoin: miter; stroke-miterlimit: 4; is-custom-font: none; font-file-url: none; fill: rgb(234,196,213); fill-rule: nonzero; opacity: 1;" x="-52.706" y="-24.071" rx="0" ry="0" width="105.412" height="48.142"/>
</g>
		<g transform="matrix(1 0 0 1 135.53 -174.66)" id="Layer_1">
<rect style="stroke: none; stroke-width: 1; stroke-dasharray: none; stroke-linecap: butt; stroke-dashoffset: 0; stroke-linejoin: miter; stroke-miterlimit: 4; is-custom-font: none; font-file-url: none; fill: rgb(234,196,213); fill-rule: nonzero; opacity: 1;" x="-52.706" y="-24.071" rx="0" ry="0" width="105.412" height="48.142"/>
</g>
		<g transform="matrix(1 0 0 1 0 0.0005)" id="Layer_1">
<path style="stroke: none; stroke-width: 1; stroke-dasharray: none; stroke-linecap: butt; stroke-dashoffset: 0; stroke-linejoin: miter; stroke-miterlimit: 4; is-custom-font: none; font-file-url: none; fill: rgb(128,155,206); fill-rule: nonzero; opacity: 1;" transform=" translate(-256, -256.0005)" d="M 323.765 105.412 c 0 8.317 6.743 15.059 15.059 15.059 H 444.24 c 8.315 0 15.059 -6.742 15.059 -15.059 V 57.27 c 0 -8.317 -6.743 -15.059 -15.059 -15.059 h -90.357 V 15.059 C 353.882 6.742 347.139 0 338.824 0 H 173.176 c -8.315 0 -15.059 6.742 -15.059 15.059 v 27.153 H 67.76 c -8.315 0 -15.059 6.742 -15.059 15.059 v 48.142 v 391.529 c 0 8.317 6.743 15.059 15.059 15.059 h 376.48 c 8.315 0 15.059 -6.742 15.059 -15.059 V 191.923 c 0 -8.317 -6.743 -15.059 -15.059 -15.059 s -15.059 6.742 -15.059 15.059 v 289.959 H 82.819 V 120.471 h 90.357 h 105.969 c 8.315 0 15.059 -6.742 15.059 -15.059 s -6.743 -15.059 -15.059 -15.059 h -90.91 V 57.27 V 30.118 h 135.529 V 57.27 V 105.412 z M 82.819 72.329 h 75.299 v 18.024 H 82.819 V 72.329 z M 429.181 90.353 h -75.299 V 72.329 h 75.299 V 90.353 z" stroke-linecap="round"/>
</g>
</g>
</g>
</svg>