<svg xmlns="http://www.w3.org/2000/svg" xmlns:xlink="http://www.w3.org/1999/xlink" version="1.1" width="512" height="512" viewBox="0 0 512 512" xml:space="preserve">
<desc>Created with Fabric.js 3.5.0</desc>
<defs>
</defs>
<rect x="0" y="0" width="100%" height="100%" fill="#ffffff"/>
<g transform="matrix(0.1434 0 0 0.1434 256.0423 256.05)" id="864300">
<g style="" vector-effect="non-scaling-stroke">
		<g transform="matrix(9.4463 0 0 9.4463 0.1078 83.1896)">
<path style="stroke: none; stroke-width: 1; stroke-dasharray: none; stroke-linecap: butt; stroke-dashoffset: 0; stroke-linejoin: miter; stroke-miterlimit: 4; is-custom-font: none; font-file-url: none; fill: rgb(0,68,130); fill-rule: nonzero; opacity: 1;" transform=" translate(-144.04, -144.01)" d="M 252.71 93.61 a 21.67 21.67 0 0 0 -2.65 -10.87 a 20.74 20.74 0 0 0 -7.87 -7.67 Q 198.77 50 155.32 25 c -7.8 -4.51 -15.36 -4.35 -23.11 0.23 C 120.69 32 63 65.09 45.81 75.06 c -7.08 4.1 -10.52 10.38 -10.52 18.54 v 100.8 a 21.77 21.77 0 0 0 2.55 10.66 a 20.63 20.63 0 0 0 8 7.88 c 17.19 10 74.89 43.05 86.41 49.85 c 7.75 4.58 15.31 4.74 23.12 0.23 q 43.41 -25.08 86.87 -50.09 a 20.63 20.63 0 0 0 8 -7.88 a 21.77 21.77 0 0 0 2.55 -10.66 V 93.61 z" stroke-linecap="round"/>
</g>
		<g transform="matrix(9.4463 0 0 9.4463 513.3006 56.5046)">
<path style="stroke: none; stroke-width: 1; stroke-dasharray: none; stroke-linecap: butt; stroke-dashoffset: 0; stroke-linejoin: miter; stroke-miterlimit: 4; is-custom-font: none; font-file-url: none; fill: rgb(0,89,156); fill-rule: nonzero; opacity: 1;" transform=" translate(-198.3672, -141.185)" d="M 252.73 194.4 a 21.72 21.72 0 0 1 -2.55 10.66 a 18.58 18.58 0 0 1 -1.45 2.24 L 144 144 l 98.19 -68.93 a 20.72 20.72 0 0 1 7.86 7.67 a 21.57 21.57 0 0 1 2.66 10.87 c 0.02 33.6 0.02 100.79 0.02 100.79 z" stroke-linecap="round"/>
</g>
		<g transform="matrix(9.4463 0 0 9.4463 -12.9038 -206.2229)">
<path style="stroke: none; stroke-width: 1; stroke-dasharray: none; stroke-linecap: butt; stroke-dashoffset: 0; stroke-linejoin: miter; stroke-miterlimit: 4; is-custom-font: none; font-file-url: none; fill: rgb(101,154,210); fill-rule: nonzero; opacity: 1;" transform=" translate(-142.6626, -113.3723)" d="M 250.05 82.74 L 37.81 205.06 a 21.75 21.75 0 0 1 -2.53 -10.65 V 93.6 c 0 -8.16 3.45 -14.44 10.52 -18.54 C 63 65.09 120.69 32 132.22 25.21 c 7.73 -4.58 15.3 -4.74 23.1 -0.23 q 43.41 25.08 86.87 50.09 a 20.72 20.72 0 0 1 7.86 7.67 z" stroke-linecap="round"/>
</g>
		<g transform="matrix(9.4463 0 0 9.4463 -13.4211 89.5161)">
<path style="stroke: none; stroke-width: 1; stroke-dasharray: none; stroke-linecap: butt; stroke-dashoffset: 0; stroke-linejoin: miter; stroke-miterlimit: 4; is-custom-font: none; font-file-url: none; fill: rgb(255,255,255); fill-rule: nonzero; opacity: 1;" transform=" translate(-142.6078, -144.6797)" d="M 148.2 184.72 a 39.91 39.91 0 0 1 -35 -20.63 q -0.53 -0.94 -1 -1.92 A 39.94 39.94 0 0 1 179 119.4 c 0.53 0.64 1 1.31 1.53 2 c 0.24 0.33 0.48 0.66 0.7 1 l 35.07 -20.2 q -1.28 -2.06 -2.68 -4 c -0.49 -0.69 -1 -1.35 -1.48 -2 A 79.9 79.9 0 0 0 78 181.92 c 0.34 0.64 0.69 1.27 1 1.9 a 79.91 79.91 0 0 0 136.86 3.62 l -34.29 -20.73 a 39.88 39.88 0 0 1 -33.37 18.01 z" stroke-linecap="round"/>
</g>
</g>
</g>
</svg>