<svg xmlns="http://www.w3.org/2000/svg" xmlns:xlink="http://www.w3.org/1999/xlink" version="1.1" width="512" height="512" viewBox="0 0 512 512" xml:space="preserve">
<desc>Created with Fabric.js 3.5.0</desc>
<defs>
</defs>
<rect x="0" y="0" width="100%" height="100%" fill="#ffffff"/>
<g transform="matrix(0.4814 0 0 0.4814 256.0035 256.0035)" id="734818">
<g style="" vector-effect="non-scaling-stroke">
		<g transform="matrix(25 0 0 25 150 -0.0012)">
<path style="stroke: none; stroke-width: 1; stroke-dasharray: none; stroke-linecap: butt; stroke-dashoffset: 0; stroke-linejoin: miter; stroke-miterlimit: 4; is-custom-font: none; font-file-url: none; fill: rgb(127,58,134); fill-rule: nonzero; opacity: 1;" transform=" translate(-22, -16)" d="M 27.6947 22.9999 C 27.883 22.6617 28 22.2807 28 21.9385 V 10.0613 C 28 9.71913 27.8831 9.33818 27.6947 9 L 16 16 L 27.6947 22.9999 Z" stroke-linecap="round"/>
</g>
		<g transform="matrix(25 0 0 25 0.0083 174.9994)">
<path style="stroke: none; stroke-width: 1; stroke-dasharray: none; stroke-linecap: butt; stroke-dashoffset: 0; stroke-linejoin: miter; stroke-miterlimit: 4; is-custom-font: none; font-file-url: none; fill: rgb(102,37,121); fill-rule: nonzero; opacity: 1;" transform=" translate(-16.0003, -23)" d="M 17.0395 29.7433 L 26.9611 23.8047 C 27.2469 23.6336 27.5067 23.3382 27.695 23 L 16.0003 16 L 4.30566 23 C 4.49398 23.3382 4.75382 23.6337 5.03955 23.8047 L 14.9611 29.7433 C 15.5326 30.0855 16.468 30.0855 17.0395 29.7433 Z" stroke-linecap="round"/>
</g>
		<g transform="matrix(25 0 0 25 -3.8162 -87.5)">
<path style="stroke: none; stroke-width: 1; stroke-dasharray: none; stroke-linecap: butt; stroke-dashoffset: 0; stroke-linejoin: miter; stroke-miterlimit: 4; is-custom-font: none; font-file-url: none; fill: rgb(154,81,150); fill-rule: nonzero; opacity: 1;" transform=" translate(-15.8474, -12.5)" d="M 27.6947 8.99996 C 27.5064 8.6617 27.2465 8.36629 26.9608 8.19521 L 17.0392 2.25662 C 16.4677 1.91446 15.5323 1.91446 14.9608 2.25662 L 5.03922 8.19521 C 4.46761 8.53729 4 9.37709 4 10.0613 V 21.9386 C 4 22.2807 4.11694 22.6618 4.30533 23 L 16 16 L 27.6947 8.99996 Z" stroke-linecap="round"/>
</g>
		<g transform="matrix(25 0 0 25 -13.4938 0)">
<path style="stroke: none; stroke-width: 1; stroke-dasharray: none; stroke-linecap: butt; stroke-dashoffset: 0; stroke-linejoin: miter; stroke-miterlimit: 4; is-custom-font: none; font-file-url: none; fill: rgb(255,255,255); fill-rule: nonzero; opacity: 1;" transform=" translate(-15.4603, -16)" d="M 16.0385 24 C 11.6061 24 8 20.4112 8 16 C 8 11.5888 11.6061 8 16.0385 8 C 18.8458 8 21.4674 9.47569 22.919 11.8618 L 19.4765 13.9265 C 18.7492 12.736 17.4399 12 16.0385 12 C 13.8222 12 12.0193 13.7944 12.0193 16 C 12.0193 18.2056 13.8222 20 16.0385 20 C 17.4362 20 18.7421 19.2681 19.4707 18.0832 L 22.9205 20.1359 C 21.4692 22.5234 18.8467 24 16.0385 24 Z" stroke-linecap="round"/>
</g>
		<g transform="matrix(25 0 0 25 200 0)">
<path style="stroke: none; stroke-width: 1; stroke-dasharray: none; stroke-linecap: butt; stroke-dashoffset: 0; stroke-linejoin: miter; stroke-miterlimit: 4; is-custom-font: none; font-file-url: none; fill: rgb(255,255,255); fill-rule: evenodd; opacity: 1;" transform=" translate(-24, -16)" d="M 25.0001 13 V 13.9974 H 22.9999 V 13 H 22.0001 V 13.9974 H 21 V 15 H 22.0001 V 16.9948 H 21 V 18 H 22.0001 V 19 H 22.9999 L 23 18 H 25.0001 V 19 H 25.9999 V 18 H 27 V 17 H 25.9999 V 15 H 27 V 13.9974 H 25.9999 V 13 H 25.0001 Z M 25.0001 17 V 15 H 22.9999 V 16.9948 L 25.0001 17 Z" stroke-linecap="round"/>
</g>
</g>
</g>
</svg>