<svg xmlns="http://www.w3.org/2000/svg" xmlns:xlink="http://www.w3.org/1999/xlink" version="1.1" width="512" height="512" viewBox="0 0 512 512" xml:space="preserve">
<desc>Created with Fabric.js 3.5.0</desc>
<defs>
</defs>
<rect x="0" y="0" width="100%" height="100%" fill="#ffffff"/>
<g transform="matrix(0.448 0 0 0.448 256 256)" id="732016">
<g style="" vector-effect="non-scaling-stroke">
		<g transform="matrix(25 0 0 25 0 25)">
<path style="stroke: none; stroke-width: 1; stroke-dasharray: none; stroke-linecap: butt; stroke-dashoffset: 0; stroke-linejoin: miter; stroke-miterlimit: 4; is-custom-font: none; font-file-url: none; fill: rgb(228,77,38); fill-rule: nonzero; opacity: 1;" transform=" translate(-16, -17)" d="M 6 28 L 4 3 H 28 L 26 28 L 16 31 L 6 28 Z" stroke-linecap="round"/>
</g>
		<g transform="matrix(25 0 0 25 125 31.25)">
<path style="stroke: none; stroke-width: 1; stroke-dasharray: none; stroke-linecap: butt; stroke-dashoffset: 0; stroke-linejoin: miter; stroke-miterlimit: 4; is-custom-font: none; font-file-url: none; fill: rgb(241,101,41); fill-rule: nonzero; opacity: 1;" transform=" translate(-21, -17.25)" d="M 26 5 H 16 V 29.5 L 24 27 L 26 5 Z" stroke-linecap="round"/>
</g>
		<g transform="matrix(25 0 0 25 6.25 25)">
<path style="stroke: none; stroke-width: 1; stroke-dasharray: none; stroke-linecap: butt; stroke-dashoffset: 0; stroke-linejoin: miter; stroke-miterlimit: 4; is-custom-font: none; font-file-url: none; fill: rgb(255,255,255); fill-rule: nonzero; opacity: 1;" transform=" translate(-16.25, -17)" d="M 9.5 17.5 L 8.5 8 H 24 L 23.5 11 H 11.5 L 12 14.5 H 23 L 22 24 L 16 26 L 10 24 L 9.5 19 H 12.5 L 13 21.5 L 16 22.5 L 19 21.5 L 19.5 17.5 H 9.5 Z" stroke-linecap="round"/>
</g>
</g>
</g>
</svg>