<svg xmlns="http://www.w3.org/2000/svg" xmlns:xlink="http://www.w3.org/1999/xlink" version="1.1" width="1000" height="1000" viewBox="0 0 1000 1000" xml:space="preserve">
<desc>Created with Fabric.js 3.5.0</desc>
<defs>
</defs>
<rect x="0" y="0" width="100%" height="100%" fill="#ffffff"/>
<g transform="matrix(0.7844 0 0 0.7844 500.0119 500.0119)" id="564318">
<g style="" vector-effect="non-scaling-stroke">
		<g transform="matrix(25 0 0 25 0 -73.085)">
<path style="stroke: none; stroke-width: 1; stroke-dasharray: none; stroke-linecap: butt; stroke-dashoffset: 0; stroke-linejoin: miter; stroke-miterlimit: 4; is-custom-font: none; font-file-url: none; fill: rgb(255,218,68); fill-rule: nonzero; opacity: 1;" transform=" translate(-16, -13.0766)" d="M 8.562 15.256 A 21.159 21.159 0 0 0 16 16.449 a 21.159 21.159 0 0 0 7.438 -1.194 c 1.864 -0.727 2.525 -1.535 2.525 -2 V 9.7 a 10.357 10.357 0 0 1 -2.084 1.076 A 22.293 22.293 0 0 1 16 12.078 a 22.36 22.36 0 0 1 -7.879 -1.3 A 10.28 10.28 0 0 1 6.037 9.7 v 3.55 C 6.037 13.724 6.7 14.528 8.562 15.256 Z" stroke-linecap="round"/>
</g>
		<g transform="matrix(25 0 0 25 0 96.5283)">
<path style="stroke: none; stroke-width: 1; stroke-dasharray: none; stroke-linecap: butt; stroke-dashoffset: 0; stroke-linejoin: miter; stroke-miterlimit: 4; is-custom-font: none; font-file-url: none; fill: rgb(255,218,68); fill-rule: nonzero; opacity: 1;" transform=" translate(-16, -19.8611)" d="M 8.562 21.961 a 15.611 15.611 0 0 0 2.6 0.741 A 24.9 24.9 0 0 0 16 23.155 a 24.9 24.9 0 0 0 4.838 -0.452 a 15.614 15.614 0 0 0 2.6 -0.741 c 1.864 -0.727 2.525 -1.535 2.525 -2 v -3.39 a 10.706 10.706 0 0 1 -1.692 0.825 A 23.49 23.49 0 0 1 16 18.74 a 23.49 23.49 0 0 1 -8.271 -1.348 a 10.829 10.829 0 0 1 -1.692 -0.825 V 19.96 C 6.037 20.426 6.7 21.231 8.562 21.961 Z" stroke-linecap="round"/>
</g>
		<g transform="matrix(25 0 0 25 0 265.8625)">
<path style="stroke: none; stroke-width: 1; stroke-dasharray: none; stroke-linecap: butt; stroke-dashoffset: 0; stroke-linejoin: miter; stroke-miterlimit: 4; is-custom-font: none; font-file-url: none; fill: rgb(255,218,68); fill-rule: nonzero; opacity: 1;" transform=" translate(-16, -26.6345)" d="M 16 30 c 5.5 0 9.963 -1.744 9.963 -3.894 V 23.269 a 10.5 10.5 0 0 1 -1.535 0.762 l -0.157 0.063 A 23.487 23.487 0 0 1 16 25.445 a 23.422 23.422 0 0 1 -8.271 -1.351 c -0.054 -0.02 -0.106 -0.043 -0.157 -0.063 a 10.5 10.5 0 0 1 -1.535 -0.762 v 2.837 C 6.037 28.256 10.5 30 16 30 Z" stroke-linecap="round"/>
</g>
		<g transform="matrix(25 0 0 25 0 -252.65)">
<ellipse style="stroke: none; stroke-width: 1; stroke-dasharray: none; stroke-linecap: butt; stroke-dashoffset: 0; stroke-linejoin: miter; stroke-miterlimit: 4; is-custom-font: none; font-file-url: none; fill: rgb(255,218,68); fill-rule: nonzero; opacity: 1;" cx="0" cy="0" rx="9.963" ry="3.894"/>
</g>
</g>
</g>
</svg>