<svg xmlns="http://www.w3.org/2000/svg" xmlns:xlink="http://www.w3.org/1999/xlink" version="1.1" width="512" height="512" viewBox="0 0 512 512" xml:space="preserve">
<desc>Created with Fabric.js 3.5.0</desc>
<defs>
</defs>
<rect x="0" y="0" width="100%" height="100%" fill="#ffffff"/>
<g transform="matrix(0.4384 0 0 0.4384 255.9971 255.9971)" id="340444">
<g style="" vector-effect="non-scaling-stroke">
		<g transform="matrix(25 0 0 25 0 0)">
<rect style="stroke: none; stroke-width: 1; stroke-dasharray: none; stroke-linecap: butt; stroke-dashoffset: 0; stroke-linejoin: miter; stroke-miterlimit: 4; is-custom-font: none; font-file-url: none; fill: rgb(49,120,198); fill-rule: nonzero; opacity: 1;" x="-14" y="-14" rx="1.312" ry="1.312" width="28" height="28"/>
</g>
		<g transform="matrix(25 0 0 25 19.1497 112.0578)">
<path style="stroke: none; stroke-width: 1; stroke-dasharray: none; stroke-linecap: butt; stroke-dashoffset: 0; stroke-linejoin: miter; stroke-miterlimit: 4; is-custom-font: none; font-file-url: none; fill: rgb(255,255,255); fill-rule: evenodd; opacity: 1;" transform=" translate(-16.766, -20.4823)" d="M 18.245 23.759 v 3.068 a 6.492 6.492 0 0 0 1.764 0.575 a 11.56 11.56 0 0 0 2.146 0.192 a 9.968 9.968 0 0 0 2.088 -0.211 a 5.11 5.11 0 0 0 1.735 -0.7 a 3.542 3.542 0 0 0 1.181 -1.266 a 4.469 4.469 0 0 0 0.186 -3.394 a 3.409 3.409 0 0 0 -0.717 -1.117 a 5.236 5.236 0 0 0 -1.123 -0.877 a 12.027 12.027 0 0 0 -1.477 -0.734 q -0.6 -0.249 -1.08 -0.484 a 5.5 5.5 0 0 1 -0.813 -0.479 a 2.089 2.089 0 0 1 -0.516 -0.518 a 1.091 1.091 0 0 1 -0.181 -0.618 a 1.039 1.039 0 0 1 0.162 -0.571 a 1.4 1.4 0 0 1 0.459 -0.436 a 2.439 2.439 0 0 1 0.726 -0.283 a 4.211 4.211 0 0 1 0.956 -0.1 a 5.942 5.942 0 0 1 0.808 0.058 a 6.292 6.292 0 0 1 0.856 0.177 a 5.994 5.994 0 0 1 0.836 0.3 a 4.657 4.657 0 0 1 0.751 0.422 V 13.9 a 7.509 7.509 0 0 0 -1.525 -0.4 a 12.426 12.426 0 0 0 -1.9 -0.129 a 8.767 8.767 0 0 0 -2.064 0.235 a 5.239 5.239 0 0 0 -1.716 0.733 a 3.655 3.655 0 0 0 -1.171 1.271 a 3.731 3.731 0 0 0 -0.431 1.845 a 3.588 3.588 0 0 0 0.789 2.34 a 6 6 0 0 0 2.395 1.639 q 0.63 0.26 1.175 0.509 a 6.458 6.458 0 0 1 0.942 0.517 a 2.463 2.463 0 0 1 0.626 0.585 a 1.2 1.2 0 0 1 0.23 0.719 a 1.1 1.1 0 0 1 -0.144 0.552 a 1.269 1.269 0 0 1 -0.435 0.441 a 2.381 2.381 0 0 1 -0.726 0.292 a 4.377 4.377 0 0 1 -1.018 0.105 a 5.773 5.773 0 0 1 -1.969 -0.35 A 5.874 5.874 0 0 1 18.245 23.759 Z m -5.154 -7.638 h 4 V 13.594 H 5.938 v 2.527 H 9.92 V 27.375 h 3.171 Z" stroke-linecap="round"/>
</g>
</g>
</g>
</svg>